<svg width="264" height="264" viewBox="0 0 264 264" fill="none" xmlns="http://www.w3.org/2000/svg">
<g clip-path="url(#clip0_565_1527)">
<path d="M122.571 136.714H160.286C162.883 136.714 165 133.221 165 130.623V125.909C165 124.98 165.278 124.759 165.792 123.986L170.332 117.857H169.714C167.112 117.857 165 115.745 165 113.143C165 110.545 162.883 108.428 160.286 108.428H122.571C119.974 108.428 117.857 109.164 117.857 111.766V130.623C117.857 133.221 119.974 136.714 122.571 136.714ZM127.286 117.857H155.571V127.286H127.286V117.857Z" fill="#FFF349"/>
<path d="M56.5714 102.338C66.986 102.338 75.4286 93.8952 75.4286 83.4807C75.4286 73.0662 66.986 64.6235 56.5714 64.6235C46.1569 64.6235 37.7143 73.0662 37.7143 83.4807C37.7143 93.8952 46.1569 102.338 56.5714 102.338Z" fill="#005FAF"/>
<path d="M94.2857 37.7142C96.888 37.7142 99 38.4449 99 41.0519V45.7662L104.657 38.9116C105.548 37.7236 106.944 37.7142 108.429 37.7142H146.143C148.74 37.7142 150.857 34.2209 150.857 31.6233V12.7662C150.857 10.1639 148.74 9.42847 146.143 9.42847H89.5714C86.9738 9.42847 84.8571 10.1639 84.8571 12.7615V31.6186C84.8571 34.2209 86.9738 37.7142 89.5714 37.7142H94.2857ZM94.2857 18.857H141.429V28.2856H94.2857V18.857Z" fill="#FFF349"/>
<path d="M207.429 102.338C217.843 102.338 226.286 93.8952 226.286 83.4807C226.286 73.0662 217.843 64.6235 207.429 64.6235C197.014 64.6235 188.571 73.0662 188.571 83.4807C188.571 93.8952 197.014 102.338 207.429 102.338Z" fill="#AC143B"/>
<path d="M216.857 132H198V144.766V149.481V158.909C198 161.511 195.888 165 193.286 165H155.571V174.429H169.714H179.143H207.429V146.143H216.857V177.766C216.857 180.369 214.745 183.857 212.143 183.857H179.143C176.545 183.857 174.429 184.593 174.429 187.195V254.571H183.857V201.338C183.857 198.731 185.969 198 188.571 198H231V144.766C231 136.964 224.655 132 216.857 132Z" fill="#AC143B"/>
<path d="M66 158.909V149.481V144.766V132H47.1429C39.3454 132 33 136.964 33 144.766V198H75.4286C78.0309 198 80.1429 198.731 80.1429 201.338V254.571H89.5714V187.195C89.5714 184.593 87.4547 183.857 84.8571 183.857H51.8571C49.2549 183.857 47.1429 180.369 47.1429 177.766V146.143H56.5714V174.429H84.8571H94.2857H108.429V165H70.7143C68.112 165 66 161.511 66 158.909Z" fill="#005FAF"/>
<path d="M56.5714 111.766C72.171 111.766 84.8571 99.0801 84.8571 83.4805C84.8571 67.881 72.171 55.1948 56.5714 55.1948C40.9718 55.1948 28.2857 67.881 28.2857 83.4805C28.2857 99.0801 40.9718 111.766 56.5714 111.766ZM56.5714 64.6234C66.9711 64.6234 75.4286 73.0808 75.4286 83.4805C75.4286 93.8802 66.9711 102.338 56.5714 102.338C46.1717 102.338 37.7143 93.8802 37.7143 83.4805C37.7143 73.0808 46.1717 64.6234 56.5714 64.6234Z" fill="#FFBABA"/>
<path d="M207.429 111.766C223.028 111.766 235.714 99.0801 235.714 83.4805C235.714 67.881 223.028 55.1948 207.429 55.1948C191.829 55.1948 179.143 67.881 179.143 83.4805C179.143 99.0801 191.829 111.766 207.429 111.766ZM207.429 64.6234C217.828 64.6234 226.286 73.0808 226.286 83.4805C226.286 93.8802 217.828 102.338 207.429 102.338C197.029 102.338 188.571 93.8802 188.571 83.4805C188.571 73.0808 197.029 64.6234 207.429 64.6234Z" fill="#FFBABA"/>
<path d="M254.571 122.572V182.481C254.571 190.278 248.226 196.624 240.429 196.624V144.766C240.429 131.769 229.854 122.572 216.857 122.572H193.286C190.683 122.572 188.571 123.302 188.571 125.909V144.766V149.481V155.572H150.857C148.255 155.572 146.143 156.302 146.143 158.909V174.429H117.857V158.909C117.857 156.302 115.745 155.572 113.143 155.572H75.4286V149.481V144.766V125.909C75.4286 123.302 73.3166 122.572 70.7143 122.572H47.1429C34.1456 122.572 23.5714 131.769 23.5714 144.766V196.624C15.774 196.624 9.42857 190.278 9.42857 182.481V122.572H0V182.481C0 192.121 5.83157 200.404 14.1429 204.053V264H23.5714V207.429H28.2857H33H70.7143V257.909C70.7143 260.512 72.8263 264 75.4286 264H89.5714H94.2857H99V257.909V187.195V183.857H113.143H150.857H165V187.195V257.909V264H169.714H174.429H188.571C191.174 264 193.286 260.512 193.286 257.909V207.429H231H235.714H240.429V264H249.857V204.053C258.168 200.404 264 192.121 264 182.481V122.572H254.571ZM94.2857 174.429H84.8571H56.5714V146.143H47.1429V177.766C47.1429 180.369 49.2549 183.857 51.8571 183.857H84.8571C87.4547 183.857 89.5714 184.593 89.5714 187.195V254.572H80.1429V201.338C80.1429 198.731 78.0309 198 75.4286 198H33V144.766C33 136.964 39.3454 132 47.1429 132H66V144.766V149.481V158.909C66 161.512 68.112 165 70.7143 165H108.429V174.429H94.2857ZM188.571 198C185.969 198 183.857 198.731 183.857 201.338V254.572H174.429V187.195C174.429 184.593 176.545 183.857 179.143 183.857H212.143C214.745 183.857 216.857 180.369 216.857 177.766V146.143H207.429V174.429H179.143H169.714H155.571V165H193.286C195.888 165 198 161.512 198 158.909V149.481V144.766V132H216.857C224.655 132 231 136.964 231 144.766V198H188.571Z" fill="#FFBABA"/>
<path d="M89.5714 45.7663V59.9091C89.5714 61.941 90.8679 63.7371 92.796 64.383C93.2863 64.548 93.7907 64.6234 94.2857 64.6234C95.7424 64.6234 97.1473 64.6376 98.0572 63.426L110.786 47.1429H146.143C153.94 47.1429 160.286 39.4209 160.286 31.6234V12.7663C160.286 4.96414 153.94 0 146.143 0H89.5714C81.774 0 75.4286 4.96414 75.4286 12.7616V31.6187C75.4286 39.4209 81.774 45.7663 89.5714 45.7663ZM84.8572 12.7616C84.8572 10.164 86.9739 9.42857 89.5714 9.42857H146.143C148.74 9.42857 150.857 10.164 150.857 12.7616V31.6187C150.857 34.221 148.74 37.7143 146.143 37.7143H108.429C106.944 37.7143 105.548 37.7237 104.657 38.9117L99 45.7663V41.052C99 38.445 96.888 37.7143 94.2857 37.7143H89.5714C86.9739 37.7143 84.8572 34.221 84.8572 31.6234V12.7616Z" fill="#D77B7B"/>
<path d="M141.429 18.8572H94.2857V28.2857H141.429V18.8572Z" fill="#D77B7B"/>
<path d="M155.571 117.857H127.286V127.286H155.571V117.857Z" fill="#D77B7B"/>
<path d="M122.571 99C114.774 99 108.429 103.964 108.429 111.766V130.623C108.429 138.421 114.774 146.143 122.571 146.143H160.286C168.083 146.143 174.429 138.421 174.429 130.623V127.333L183.065 114.378C184.032 112.931 184.121 111.762 183.301 110.229C182.481 108.697 180.882 108.429 179.143 108.429H173.622C171.675 99 166.433 99 160.286 99H122.571ZM165 113.143C165 115.745 167.112 117.857 169.714 117.857H170.332L165.792 123.981C165.278 124.754 165 124.976 165 125.909V130.623C165 133.221 162.883 136.714 160.286 136.714H122.571C119.974 136.714 117.857 133.221 117.857 130.623V111.766C117.857 109.164 119.974 108.429 122.571 108.429H160.286C162.883 108.429 165 110.545 165 113.143Z" fill="#DD7777" fill-opacity="0.717647"/>
<path d="M117.857 74.052H108.429V83.4806H117.857V74.052Z" fill="#868686"/>
<path d="M136.714 74.052H127.286V83.4806H136.714V74.052Z" fill="#868686"/>
<path d="M155.571 74.052H146.143V83.4806H155.571V74.052Z" fill="#868686"/>
</g>
<defs>
<clipPath id="clip0_565_1527">
<rect width="264" height="264" fill="white"/>
</clipPath>
</defs>
</svg>
